<?xml version="1.0" encoding="UTF-8"?>
<svg id="Calque_1" xmlns="http://www.w3.org/2000/svg" version="1.1" viewBox="0 0 102.1 102.1">
  <!-- Generator: Adobe Illustrator 29.2.0, SVG Export Plug-In . SVG Version: 2.1.0 Build 108)  -->
  <defs>
    <style>
      .st0 {
        fill: #fff;
      }
    </style>
  </defs>
  <path class="st0" d="M35.1,46.7c1.8,0,3.2-.4,4.4-1.3,1.1-.8,1.7-2.2,1.7-4.1,0-1.1-.2-1.9-.6-2.6s-.9-1.2-1.5-1.6c-.6-.4-1.4-.6-2.2-.8-.8-.1-1.7-.2-2.6-.2h-9.3v10.6h10.1s0,0,0,0Z"/>
  <path class="st0" d="M41.1,55c-1.3-1-3-1.5-5.2-1.5h-10.8v12.4h10.6s0,0,0,0c.9,0,1.9,0,2.8-.3.9-.2,1.7-.5,2.3-1,.7-.4,1.2-1,1.6-1.8.4-.8.6-1.7.6-2.9,0-2.3-.7-4-2-5Z"/>
  <path class="st0" d="M51,1.1C23.5,1.1,1.1,23.5,1.1,51s22.4,49.9,49.9,49.9,49.9-22.4,49.9-49.9S78.6,1.1,51,1.1ZM61.7,30.7h18.3v5.1h-18.3v-5.1ZM51.7,66.5c-.9,1.7-2.1,3-3.6,4.1-1.5,1.1-3.2,1.8-5.1,2.3-1.9.5-3.9.8-5.9.8H15.1V28.4h21.3c2.2,0,4.1.2,5.9.6s3.3,1,4.6,1.9,2.2,2,2.9,3.5,1,3.2,1,5.3-.5,4.2-1.6,5.7-2.6,2.8-4.6,3.7c2.8.8,4.9,2.2,6.2,4.2s2.1,4.4,2.1,7.3-.4,4.3-1.3,5.9ZM65.5,65h0c1.4,1.3,3.3,2,5.8,2s3.4-.5,4.7-1.4,2.1-1.9,2.4-2.9h7.9c-1.3,3.9-3.2,6.7-5.8,8.4-2.6,1.7-5.8,2.5-9.5,2.5s-4.9-.4-7-1.2-3.8-2-5.3-3.5-2.5-3.3-3.3-5.4-1.2-4.4-1.2-7,.4-4.7,1.2-6.8,1.9-3.9,3.4-5.5,3.2-2.8,5.3-3.6c2-.9,4.3-1.3,6.8-1.3s5.2.5,7.3,1.6c2.1,1.1,3.8,2.5,5.1,4.3,1.3,1.8,2.3,3.9,2.9,6.2.6,2.3.8,4.8.6,7.3h-23.6c.1,2.9.9,5,2.2,6.3Z"/>
  <path class="st0" d="M75.7,47.7c-1.1-1.2-2.7-1.8-4.9-1.8s-2.6.2-3.6.7c-1,.5-1.7,1.1-2.3,1.8-.6.7-1,1.5-1.2,2.3-.2.8-.4,1.5-.4,2.2h14.6c-.4-2.3-1.2-4-2.3-5.2h0Z"/>
</svg>
